<svg width="76" height="73" viewBox="0 0 76 73" fill="none" xmlns="http://www.w3.org/2000/svg">
<path d="M75.3881 9.76172C75.4023 11.7289 75.4023 11.7289 75.4167 13.7358C75.4114 15.1689 75.4052 16.6021 75.3983 18.0352C75.4004 19.5034 75.4033 20.9717 75.407 22.4399C75.4115 25.5167 75.405 28.5932 75.391 31.6699C75.3739 35.6146 75.3838 39.5586 75.4017 43.5032C75.4126 46.535 75.4091 49.5666 75.4014 52.5983C75.3994 54.0528 75.4018 55.5073 75.4088 56.9617C75.4164 58.994 75.4027 61.0263 75.3881 63.0586C75.3857 64.2154 75.3833 65.3721 75.3809 66.564C74.9999 69.4102 74.9999 69.4102 73.6661 71.2829C70.9726 73.1052 68.4547 72.7997 65.2499 72.8086C64.5954 72.8115 63.9409 72.8143 63.2665 72.8173C61.8847 72.8193 60.5028 72.8138 59.121 72.8013C57.0071 72.7852 54.895 72.8011 52.7812 72.8203C51.4374 72.8183 50.0936 72.8145 48.7499 72.8086C47.5279 72.8052 46.3058 72.8018 45.0468 72.7983C41.9999 72.4102 41.9999 72.4102 40.0924 71.0566C38.4557 68.5899 38.7723 66.4574 38.8124 63.5352C38.6797 59.1425 38.6797 59.1425 36.3046 55.6875C34.8986 54.8808 33.4634 54.123 32.0038 53.418C27.7736 51.2905 26.0428 47.4959 23.9999 43.4102C16.0799 43.0802 8.15991 42.7502 -9.34065e-05 42.4102C-9.32334e-05 38.4502 -9.30603e-05 34.4902 -9.2882e-05 30.4102C1.6744 30.4308 3.34889 30.4514 5.07413 30.4727C7.27857 30.4539 9.483 30.4329 11.6874 30.4102C12.7902 30.4295 13.893 30.4488 15.0292 30.4687C20.9504 30.5453 20.9504 30.5453 25.7951 27.646C27.139 25.5434 27.139 25.5434 28.0888 23.3569C29.4214 20.5096 31.4254 19.1265 33.9999 17.4102C34.6986 17.1691 35.3973 16.928 36.1171 16.6797C36.7384 16.2607 37.3598 15.8418 37.9999 15.4102C38.5935 12.6273 38.5935 12.6273 38.5624 9.47265C38.6776 3.89387 38.6776 3.89387 40.1012 1.75708C42.9432 -0.259046 45.2974 0.0212774 48.7499 0.0117176C49.4044 0.00884743 50.059 0.00597728 50.7333 0.00302016C52.1152 0.000981552 53.497 0.00649783 54.8788 0.0190421C56.9928 0.0351011 59.1048 0.0191895 61.2187 -6.20618e-07C62.5624 0.00198191 63.9062 0.00582573 65.2499 0.0117183C66.4719 0.0151021 67.694 0.018486 68.953 0.0219724C71.9999 0.410156 71.9999 0.410156 73.6661 1.53744C75.6181 4.27813 75.3812 6.4191 75.3881 9.76172ZM64.9999 10.4102C63.6799 10.4102 62.3599 10.4102 60.9999 10.4102C59.7966 12.8167 59.8731 14.3246 59.8705 17.0117C59.8658 18.4433 59.8658 18.4433 59.861 19.9038C59.863 20.9372 59.865 21.9705 59.8671 23.0352C59.8661 24.093 59.8652 25.1508 59.8642 26.2407C59.8635 28.4801 59.8654 30.7196 59.8695 32.959C59.8749 36.3959 59.8696 39.8326 59.8632 43.2695C59.8638 45.4414 59.8651 47.6133 59.8671 49.7852C59.8651 50.8185 59.863 51.8518 59.861 52.9165C59.8641 53.8709 59.8673 54.8253 59.8705 55.8086C59.8713 56.6508 59.8721 57.4931 59.8729 58.3608C59.8699 60.476 59.8699 60.476 60.9999 62.4102C62.3199 62.4102 63.6399 62.4102 64.9999 62.4102C66.2032 60.0036 66.1268 58.4957 66.1293 55.8086C66.1325 54.8542 66.1356 53.8998 66.1389 52.9165C66.1368 51.8832 66.1348 50.8498 66.1327 49.7852C66.1337 48.7273 66.1346 47.6695 66.1356 46.5796C66.1363 44.3402 66.1344 42.1007 66.1303 39.8613C66.1249 36.4244 66.1302 32.9877 66.1366 29.5508C66.136 27.3789 66.1347 25.207 66.1327 23.0352C66.1347 22.0018 66.1368 20.9685 66.1389 19.9038C66.1357 18.9494 66.1325 17.995 66.1293 17.0117C66.1285 16.1695 66.1277 15.3272 66.1269 14.4595C66.1299 12.3443 66.1299 12.3443 64.9999 10.4102ZM52.9999 10.4102C51.6799 10.4102 50.3599 10.4102 48.9999 10.4102C47.7966 12.8167 47.8731 14.3246 47.8705 17.0117C47.8658 18.4433 47.8658 18.4433 47.861 19.9038C47.863 20.9372 47.865 21.9705 47.8671 23.0352C47.8661 24.093 47.8652 25.1508 47.8642 26.2407C47.8635 28.4801 47.8654 30.7196 47.8695 32.959C47.8749 36.3959 47.8696 39.8326 47.8632 43.2695C47.8638 45.4414 47.8651 47.6133 47.8671 49.7852C47.8651 50.8185 47.863 51.8518 47.861 52.9165C47.8641 53.8709 47.8673 54.8253 47.8705 55.8086C47.8713 56.6508 47.8721 57.4931 47.8729 58.3608C47.8699 60.476 47.8699 60.476 48.9999 62.4102C50.3199 62.4102 51.6399 62.4102 52.9999 62.4102C54.2032 60.0036 54.1268 58.4957 54.1293 55.8086C54.1325 54.8542 54.1356 53.8998 54.1389 52.9165C54.1368 51.8832 54.1348 50.8498 54.1327 49.7852C54.1337 48.7273 54.1346 47.6695 54.1356 46.5796C54.1363 44.3402 54.1344 42.1007 54.1303 39.8613C54.1249 36.4244 54.1302 32.9877 54.1366 29.5508C54.136 27.3789 54.1347 25.207 54.1327 23.0352C54.1347 22.0018 54.1368 20.9685 54.1389 19.9038C54.1357 18.9494 54.1326 17.995 54.1293 17.0117C54.1285 16.1695 54.1277 15.3272 54.1269 14.4595C54.1299 12.3443 54.1299 12.3443 52.9999 10.4102ZM38.9999 23.4102C33.6222 26.4452 33.6222 26.4452 30.9999 31.4102C30.1856 36.6811 30.2452 40.9784 33.3124 45.4727C35.7262 48.5892 35.7262 48.5892 38.9999 49.4102C38.9999 40.8302 38.9999 32.2502 38.9999 23.4102Z" fill="#323A45"/>
</svg>
