<svg width="28" height="28" viewBox="0 0 28 28" fill="none" xmlns="http://www.w3.org/2000/svg">
<path d="M20.9999 15.1667C21.3305 15.1667 21.6077 15.0547 21.8318 14.8307C22.0557 14.6067 22.1674 14.3298 22.1666 14C22.1658 13.6702 22.0538 13.3933 21.8306 13.1693C21.6074 12.9453 21.3305 12.8333 20.9999 12.8333H17.4999C17.1694 12.8333 16.8925 12.9453 16.6693 13.1693C16.446 13.3933 16.334 13.6702 16.3333 14C16.3325 14.3298 16.4445 14.607 16.6693 14.8318C16.894 15.0566 17.1709 15.1682 17.4999 15.1667H20.9999ZM20.9999 11.6667C21.3305 11.6667 21.6077 11.5547 21.8318 11.3307C22.0557 11.1067 22.1674 10.8298 22.1666 10.5C22.1658 10.1702 22.0538 9.89332 21.8306 9.66932C21.6074 9.44532 21.3305 9.33332 20.9999 9.33332H17.4999C17.1694 9.33332 16.8925 9.44532 16.6693 9.66932C16.446 9.89332 16.334 10.1702 16.3333 10.5C16.3325 10.8298 16.4445 11.107 16.6693 11.3318C16.894 11.5566 17.1709 11.6682 17.4999 11.6667H20.9999ZM10.4999 15.1667C9.79992 15.1667 9.16797 15.23 8.60408 15.3568C8.0402 15.4836 7.54436 15.6827 7.11658 15.9542C6.70825 16.2069 6.39714 16.4939 6.18325 16.8152C5.96936 17.1364 5.86242 17.4813 5.86242 17.85C5.86242 18.0833 5.94992 18.2778 6.12492 18.4333C6.29992 18.5889 6.51381 18.6667 6.76659 18.6667H14.2333C14.486 18.6667 14.6999 18.5838 14.8749 18.4182C15.0499 18.2525 15.1374 18.0437 15.1374 17.7917C15.1374 17.4611 15.0305 17.1403 14.8166 16.8292C14.6027 16.518 14.2916 16.2264 13.8833 15.9542C13.4555 15.6819 12.9596 15.4824 12.3958 15.3557C11.8319 15.2289 11.1999 15.1659 10.4999 15.1667ZM10.4999 14C11.1416 14 11.6907 13.7717 12.1473 13.3152C12.6038 12.8586 12.8325 12.3091 12.8333 11.6667C12.834 11.0242 12.6058 10.4751 12.1484 10.0193C11.6911 9.56355 11.1416 9.33488 10.4999 9.33332C9.85825 9.33177 9.30914 9.56043 8.85258 10.0193C8.39603 10.4782 8.16736 11.0273 8.16658 11.6667C8.16581 12.306 8.39447 12.8555 8.85258 13.3152C9.3107 13.7748 9.85981 14.0031 10.4999 14ZM4.66659 23.3333C4.02492 23.3333 3.47581 23.105 3.01925 22.6485C2.5627 22.1919 2.33403 21.6424 2.33325 21V6.99999C2.33325 6.35832 2.56192 5.80921 3.01925 5.35266C3.47659 4.8961 4.0257 4.66743 4.66659 4.66666H23.3333C23.9749 4.66666 24.5244 4.89532 24.9818 5.35266C25.4391 5.80999 25.6674 6.3591 25.6666 6.99999V21C25.6666 21.6417 25.4383 22.1912 24.9818 22.6485C24.5252 23.1058 23.9757 23.3341 23.3333 23.3333H4.66659Z" fill="white"/>
</svg>
