<svg width="61" height="61" viewBox="0 0 61 61" fill="none" xmlns="http://www.w3.org/2000/svg">
<path d="M45.2349 32.6693C45.947 32.6693 46.5442 32.4281 47.0267 31.9456C47.5092 31.4631 47.7497 30.8666 47.748 30.1563C47.7463 29.4459 47.5051 28.8495 47.0242 28.367C46.5434 27.8845 45.947 27.6433 45.2349 27.6433H37.6958C36.9838 27.6433 36.3874 27.8845 35.9066 28.367C35.4257 28.8495 35.1845 29.4459 35.1828 30.1563C35.1811 30.8666 35.4224 31.4639 35.9066 31.9481C36.3907 32.4323 36.9872 32.6727 37.6958 32.6693H45.2349ZM45.2349 25.1302C45.947 25.1302 46.5442 24.889 47.0267 24.4065C47.5092 23.924 47.7497 23.3275 47.748 22.6172C47.7463 21.9068 47.5051 21.3104 47.0242 20.8279C46.5434 20.3454 45.947 20.1041 45.2349 20.1041H37.6958C36.9838 20.1041 36.3874 20.3454 35.9066 20.8279C35.4257 21.3104 35.1845 21.9068 35.1828 22.6172C35.1811 23.3275 35.4224 23.9248 35.9066 24.409C36.3907 24.8932 36.9872 25.1336 37.6958 25.1302H45.2349ZM22.6176 32.6693C21.1098 32.6693 19.7486 32.8059 18.5339 33.079C17.3193 33.352 16.2513 33.7809 15.3298 34.3656C14.4503 34.9101 13.7801 35.5283 13.3194 36.2202C12.8587 36.9122 12.6283 37.6552 12.6283 38.4493C12.6283 38.9519 12.8168 39.3708 13.1937 39.7058C13.5707 40.0409 14.0314 40.2084 14.5759 40.2084H30.6593C31.2038 40.2084 31.6645 40.03 32.0415 39.6732C32.4185 39.3163 32.6069 38.8665 32.6069 38.3237C32.6069 37.6116 32.3766 36.9205 31.9159 36.2504C31.4551 35.5803 30.785 34.952 29.9054 34.3656C28.984 33.7793 27.9159 33.3495 26.7013 33.0764C25.4867 32.8034 24.1254 32.6677 22.6176 32.6693ZM22.6176 30.1563C23.9998 30.1563 25.1826 29.6646 26.166 28.6811C27.1495 27.6977 27.642 26.5141 27.6437 25.1302C27.6454 23.7464 27.1537 22.5636 26.1685 21.5818C25.1834 20.6001 23.9998 20.1075 22.6176 20.1041C21.2354 20.1008 20.0526 20.5934 19.0692 21.5818C18.0858 22.5703 17.5932 23.7531 17.5915 25.1302C17.5899 26.5074 18.0824 27.691 19.0692 28.6811C20.056 29.6713 21.2388 30.163 22.6176 30.1563ZM10.0524 50.2606C8.67027 50.2606 7.48747 49.7689 6.50403 48.7854C5.5206 47.802 5.02804 46.6184 5.02637 45.2345V15.0781C5.02637 13.6959 5.51892 12.5131 6.50403 11.5297C7.48914 10.5462 8.67194 10.0537 10.0524 10.052H50.261C51.6432 10.052 52.8268 10.5446 53.8119 11.5297C54.797 12.5148 55.2888 13.6976 55.2871 15.0781V45.2345C55.2871 46.6167 54.7954 47.8003 53.8119 48.7854C52.8285 49.7705 51.6449 50.2623 50.261 50.2606H10.0524Z" fill="#3F6184"/>
</svg>
