<svg width="175" height="193" viewBox="0 0 175 193" fill="none" xmlns="http://www.w3.org/2000/svg">
<path d="M41.4704 180.962H48.4727V182.778H43.4995V184.662H47.8759V186.478H43.4995V188.428H48.539V190.245H41.4704V180.962ZM57.2378 190.377C56.5305 190.377 55.8364 190.258 55.1557 190.019C54.4749 189.772 53.856 189.396 53.299 188.892L54.5058 187.447C54.9302 187.791 55.3634 188.065 55.8055 188.269C56.2564 188.472 56.7471 188.574 57.2776 188.574C57.702 188.574 58.0291 188.499 58.259 188.348C58.4977 188.189 58.617 187.973 58.617 187.699V187.672C58.617 187.539 58.5905 187.424 58.5375 187.327C58.4932 187.221 58.4004 187.124 58.259 187.035C58.1263 186.947 57.9362 186.859 57.6887 186.77C57.45 186.682 57.1361 186.589 56.7471 186.492C56.2785 186.377 55.8541 186.249 55.474 186.107C55.0938 185.966 54.7711 185.793 54.5058 185.59C54.2406 185.378 54.0328 185.117 53.8825 184.807C53.7411 184.498 53.6703 184.113 53.6703 183.654V183.627C53.6703 183.203 53.7499 182.823 53.9091 182.487C54.0682 182.142 54.2892 181.846 54.5721 181.598C54.8639 181.351 55.2087 181.16 55.6066 181.028C56.0044 180.895 56.4421 180.829 56.9195 180.829C57.6003 180.829 58.2236 180.931 58.7894 181.134C59.3641 181.337 59.8902 181.629 60.3676 182.009L59.3066 183.548C58.8911 183.265 58.4844 183.044 58.0865 182.884C57.6887 182.716 57.2908 182.633 56.893 182.633C56.4951 182.633 56.1945 182.712 55.9912 182.871C55.7967 183.022 55.6994 183.212 55.6994 183.441V183.468C55.6994 183.618 55.7259 183.751 55.779 183.866C55.8409 183.972 55.947 184.069 56.0973 184.158C56.2476 184.246 56.4509 184.33 56.7073 184.41C56.9726 184.489 57.3041 184.582 57.702 184.688C58.1705 184.812 58.5861 184.953 58.9486 185.112C59.3199 185.263 59.6293 185.448 59.8769 185.669C60.1333 185.882 60.3234 186.134 60.4472 186.425C60.5798 186.717 60.6461 187.066 60.6461 187.473V187.5C60.6461 187.959 60.5621 188.37 60.3941 188.733C60.2261 189.087 59.9918 189.387 59.6912 189.635C59.3906 189.873 59.0326 190.059 58.617 190.192C58.2015 190.316 57.7417 190.377 57.2378 190.377ZM68.1609 182.845H65.3361V180.962H73.028V182.845H70.2033V190.245H68.1609V182.845ZM77.8877 188.123H80.0361V190.245H77.8877V188.123ZM92.6473 188.627L95.7374 186.094C96.0291 185.855 96.2767 185.643 96.48 185.457C96.6834 185.263 96.8469 185.082 96.9707 184.914C97.1033 184.737 97.1962 184.569 97.2492 184.41C97.3111 184.242 97.342 184.06 97.342 183.866C97.342 183.468 97.2271 183.167 96.9972 182.964C96.7674 182.761 96.4668 182.659 96.0954 182.659C95.7329 182.659 95.4102 182.761 95.1273 182.964C94.8532 183.167 94.5438 183.481 94.199 183.906L92.7667 182.752C92.9966 182.442 93.2264 182.168 93.4563 181.93C93.695 181.691 93.947 181.492 94.2122 181.333C94.4863 181.165 94.7869 181.041 95.114 180.962C95.4412 180.873 95.8125 180.829 96.228 180.829C96.7055 180.829 97.1387 180.9 97.5277 181.041C97.9256 181.174 98.2615 181.364 98.5356 181.611C98.8185 181.859 99.0351 182.159 99.1854 182.513C99.3446 182.867 99.4242 183.26 99.4242 183.693V183.72C99.4242 184.109 99.3711 184.458 99.265 184.768C99.1678 185.068 99.0175 185.356 98.8141 185.63C98.6196 185.895 98.3676 186.165 98.0582 186.439C97.7487 186.704 97.3907 186.996 96.984 187.314L95.4721 188.481H99.517V190.245H92.6473V188.627ZM108.695 188.561C109.004 188.561 109.283 188.49 109.53 188.348C109.778 188.198 109.99 187.995 110.167 187.738C110.344 187.473 110.476 187.164 110.565 186.81C110.662 186.448 110.711 186.054 110.711 185.63V185.603C110.711 185.179 110.662 184.79 110.565 184.436C110.468 184.074 110.326 183.76 110.14 183.495C109.964 183.229 109.747 183.022 109.491 182.871C109.243 182.721 108.969 182.646 108.668 182.646C108.359 182.646 108.08 182.721 107.833 182.871C107.585 183.013 107.373 183.216 107.196 183.481C107.028 183.738 106.896 184.047 106.798 184.41C106.701 184.763 106.653 185.152 106.653 185.577V185.603C106.653 186.028 106.701 186.421 106.798 186.783C106.896 187.146 107.033 187.46 107.21 187.725C107.386 187.981 107.599 188.185 107.846 188.335C108.102 188.485 108.385 188.561 108.695 188.561ZM108.668 190.404C108.049 190.404 107.484 190.285 106.971 190.046C106.467 189.798 106.034 189.462 105.671 189.038C105.317 188.605 105.043 188.096 104.849 187.513C104.654 186.929 104.557 186.302 104.557 185.63V185.603C104.557 184.931 104.654 184.304 104.849 183.72C105.052 183.136 105.335 182.628 105.698 182.195C106.06 181.762 106.493 181.421 106.997 181.174C107.51 180.926 108.076 180.802 108.695 180.802C109.305 180.802 109.862 180.926 110.366 181.174C110.879 181.412 111.312 181.748 111.665 182.182C112.028 182.606 112.306 183.11 112.501 183.693C112.704 184.277 112.806 184.905 112.806 185.577V185.603C112.806 186.275 112.704 186.903 112.501 187.486C112.306 188.07 112.028 188.578 111.665 189.011C111.303 189.445 110.865 189.785 110.353 190.033C109.849 190.28 109.287 190.404 108.668 190.404ZM117.759 188.627L120.849 186.094C121.141 185.855 121.388 185.643 121.592 185.457C121.795 185.263 121.959 185.082 122.082 184.914C122.215 184.737 122.308 184.569 122.361 184.41C122.423 184.242 122.454 184.06 122.454 183.866C122.454 183.468 122.339 183.167 122.109 182.964C121.879 182.761 121.578 182.659 121.207 182.659C120.845 182.659 120.522 182.761 120.239 182.964C119.965 183.167 119.655 183.481 119.311 183.906L117.878 182.752C118.108 182.442 118.338 182.168 118.568 181.93C118.807 181.691 119.059 181.492 119.324 181.333C119.598 181.165 119.899 181.041 120.226 180.962C120.553 180.873 120.924 180.829 121.34 180.829C121.817 180.829 122.25 180.9 122.639 181.041C123.037 181.174 123.373 181.364 123.647 181.611C123.93 181.859 124.147 182.159 124.297 182.513C124.456 182.867 124.536 183.26 124.536 183.693V183.72C124.536 184.109 124.483 184.458 124.377 184.768C124.279 185.068 124.129 185.356 123.926 185.63C123.731 185.895 123.479 186.165 123.17 186.439C122.86 186.704 122.502 186.996 122.096 187.314L120.584 188.481H124.629V190.245H117.759V188.627ZM131.313 182.964L129.695 183.362L129.271 181.691L131.936 180.895H133.329V190.245H131.313V182.964Z" fill="white"/>
<path d="M129.956 56.039H122.115L122.428 94.7226L125.147 92.8407C124.645 86.8186 128.144 85.2434 129.956 85.2085V56.039Z" fill="white"/>
<path d="M33.8632 25.7139C34.0412 26.4287 34.2191 27.1436 34.4025 27.88C35.2922 28.0587 36.182 28.2374 37.0988 28.4215C37.4674 29.3608 37.4674 29.3608 37.638 30.5876C36.9829 31.7468 36.9829 31.7468 36.054 32.8891C35.7488 33.2716 35.4436 33.6542 35.1292 34.0483C34.8894 34.3359 34.6496 34.6235 34.4025 34.9198C31.7357 33.4972 29.6151 31.5264 27.3921 29.5046C27.8161 28.8821 28.2437 28.2621 28.6728 27.6431C28.9106 27.2976 29.1483 26.952 29.3932 26.596C30.7876 24.8267 31.8394 25.2326 33.8632 25.7139ZM31.1669 27.88C30.989 28.4161 30.811 28.9522 30.6276 29.5046C31.1615 29.3259 31.6954 29.1472 32.2454 28.9631C32.2454 28.6057 32.2454 28.2483 32.2454 27.88C31.8895 27.88 31.5336 27.88 31.1669 27.88ZM33.8632 29.5046C33.3293 30.3088 33.3293 30.3088 32.7847 31.1292C33.4965 31.1292 34.2083 31.1292 34.9417 31.1292C34.9417 30.5931 34.9417 30.0569 34.9417 29.5046C34.5858 29.5046 34.2299 29.5046 33.8632 29.5046Z" fill="white"/>
<path d="M69.2323 2.792C69.4086 2.97322 69.5849 3.15445 69.7666 3.34116C69.7555 3.7829 69.7445 4.22464 69.7332 4.67976C69.6113 6.17991 69.6113 6.17991 70.835 7.18534C70.9017 8.90148 70.9017 8.90148 70.835 10.4803C67.3626 12.1278 67.3626 12.1278 64.9587 12.1278C64.5857 10.9742 64.2198 9.81823 63.8569 8.66122C63.6524 8.01773 63.4479 7.37424 63.2372 6.71125C62.8219 4.98867 62.8219 4.98867 63.3561 3.34116C65.2183 2.53125 67.2449 2.7149 69.2323 2.792ZM65.4929 4.98867C65.4929 5.35112 65.4929 5.71357 65.4929 6.087C66.1981 6.087 66.9032 6.087 67.6297 6.087C67.4535 5.54332 67.2772 4.99965 67.0955 4.4395C66.4419 4.39857 66.4419 4.39857 65.4929 4.98867ZM66.5613 8.28367C66.5613 8.82735 66.5613 9.37102 66.5613 9.93117C67.2665 9.74995 67.9716 9.56872 68.6981 9.38201C68.5219 8.83833 68.3456 8.29465 68.1639 7.7345C67.5103 7.69357 67.5103 7.69357 66.5613 8.28367Z" fill="white"/>
<path d="M133.565 15.9644C134.898 16.883 134.898 16.883 135.753 18.1418C136.105 20.2053 135.918 21.1225 134.864 22.9388C133.274 24.3963 132.437 24.6739 130.285 24.6739C128.719 24.0008 127.828 23.4047 126.799 22.0542C126.308 20.3451 126.472 19.2912 127.004 17.5974C129.084 15.2225 130.58 15.0998 133.565 15.9644ZM130.285 17.5974C129.473 18.6752 129.473 18.6752 128.644 19.7748C129.177 21.1442 129.443 21.8103 130.797 22.4625C131.96 22.6011 131.96 22.6011 132.916 21.8841C133.721 20.8561 133.721 20.8561 133.395 19.4006C133.208 18.7775 133.208 18.7775 133.019 18.1418C132.116 17.9621 131.214 17.7825 130.285 17.5974Z" fill="white"/>
<path d="M56.3177 8.14032C57.4097 9.8034 57.4097 9.8034 57.3414 11.1547C57.2705 12.6781 57.2705 12.6781 58.5016 13.8572C58.862 14.1659 59.2223 14.4746 59.5936 14.7927C57.799 15.2359 57.0219 15.4006 55.2257 14.7927C55.4059 15.5244 55.5861 16.2562 55.7717 17.0101C55.051 17.193 54.3303 17.376 53.5878 17.5645C52.3265 15.0033 51.0653 12.4422 49.7659 9.8034C52.2448 7.91569 53.371 7.21973 56.3177 8.14032ZM53.5878 9.8034C53.2274 10.1693 52.8671 10.5352 52.4958 10.9121C52.676 11.278 52.8561 11.6439 53.0418 12.0208C53.7625 11.655 54.4832 11.2891 55.2257 10.9121C55.0455 10.5462 54.8654 10.1804 54.6797 9.8034C54.3194 9.8034 53.959 9.8034 53.5878 9.8034Z" fill="white"/>
<path d="M90.0907 0.106878C90.7733 0.0843053 91.456 0.0617327 92.1593 0.0384761C92.5433 0.025779 92.9273 0.0130819 93.3229 0C94.4314 0.106878 94.4314 0.106878 96.0592 1.20131C96.2287 3.11656 96.2287 3.11656 96.0592 5.03181C95.7011 5.39298 95.343 5.75414 94.974 6.12624C95.3321 7.20973 95.6902 8.29321 96.0592 9.40953C94.7705 9.23853 94.7705 9.23853 93.3462 8.86232C92.9881 8.32058 92.63 7.77883 92.261 7.22067C92.082 7.76242 91.9029 8.30416 91.7185 8.86232C91.0022 8.86232 90.286 8.86232 89.5481 8.86232C89.5334 7.71093 89.5229 6.55948 89.5142 5.40802C89.5079 4.76682 89.5016 4.12562 89.4951 3.46498C89.5481 1.74852 89.5481 1.74852 90.0907 0.106878ZM91.7185 2.29574C91.7185 2.83748 91.7185 3.37922 91.7185 3.93738C92.4347 3.93738 93.1509 3.93738 93.8888 3.93738C93.8888 3.39564 93.8888 2.8539 93.8888 2.29574C93.1726 2.29574 92.4564 2.29574 91.7185 2.29574Z" fill="white"/>
<path d="M117.184 6.06392C117.911 6.42537 118.637 6.78681 119.385 7.15921C119.022 8.06282 118.659 8.96644 118.285 9.89743C119.011 10.2589 119.738 10.6203 120.486 10.9927C120.849 10.2698 121.212 9.54694 121.586 8.80215C122.313 8.98287 123.039 9.16359 123.788 9.34979C123.455 11.4584 122.815 13.1072 121.827 14.9974C121.577 15.481 121.326 15.9645 121.068 16.4628C120.876 16.8263 120.684 17.1899 120.486 17.5645C119.76 17.203 119.033 16.8416 118.285 16.4692C118.466 15.3848 118.648 14.3005 118.835 13.1833C118.109 12.8219 117.382 12.4604 116.634 12.088C116.271 12.9916 115.908 13.8952 115.534 14.8262C114.807 14.4648 114.081 14.1033 113.333 13.7309C114.604 11.2008 115.875 8.67071 117.184 6.06392Z" fill="white"/>
<path d="M108.494 2.78709C109.569 4.43216 109.569 4.43216 109.569 6.07723C108.682 5.89628 107.795 5.71532 106.88 5.52888C106.88 5.16696 106.88 4.80505 106.88 4.43216C106.526 4.43216 106.171 4.43216 105.805 4.43216C106.249 4.8167 106.692 5.20123 107.149 5.59742C108.494 7.17395 108.494 7.17395 108.762 8.92184C108.674 9.43078 108.585 9.93972 108.494 10.4641C106.88 11.5608 106.88 11.5608 105.267 11.458C103.642 11.0089 102.988 10.7625 102.041 9.36738C102.041 8.8245 102.041 8.28163 102.041 7.72231C102.751 7.54135 103.461 7.36039 104.192 7.17395C103.837 6.81203 103.482 6.45012 103.117 6.07723C103.251 4.39789 103.251 4.39789 103.654 2.78709C105.347 1.9238 106.69 2.39285 108.494 2.78709ZM104.73 7.72231C104.73 8.26518 104.73 8.80805 104.73 9.36738C105.262 9.36738 105.794 9.36738 106.343 9.36738C106.165 8.8245 105.988 8.28163 105.805 7.72231C105.45 7.72231 105.095 7.72231 104.73 7.72231Z" fill="white"/>
<path d="M40.3391 15.8917C43.5819 16.7041 46.0251 18.3983 48.7206 20.2595C48.5362 20.8001 48.3518 21.3406 48.1618 21.8975C47.2399 21.8975 46.3179 21.8975 45.368 21.8975C45.126 22.3873 45.126 22.3873 44.8791 22.8871C44.2505 24.0814 44.2505 24.0814 43.133 25.7194C42.7642 25.7194 42.3954 25.7194 42.0154 25.7194C41.5306 24.585 41.0551 23.4468 40.5836 22.307C40.3178 21.6736 40.052 21.0401 39.7782 20.3875C39.2445 18.6943 39.0712 18.0281 39.7804 16.4376C39.9648 16.2575 40.1492 16.0773 40.3391 15.8917ZM42.5742 19.7136C42.7586 20.2541 42.943 20.7946 43.133 21.3515C43.3173 20.811 43.5017 20.2705 43.6917 19.7136C43.3229 19.7136 42.9542 19.7136 42.5742 19.7136Z" fill="white"/>
<path d="M142.966 25.3518C144.392 25.9624 144.878 26.5921 145.615 27.9374C145.786 29.619 145.786 29.619 145.615 31.1662C144.523 32.2424 144.523 32.2424 143.227 32.4106C141.56 32.2151 140.848 31.7126 139.61 30.628C139.249 30.9832 138.889 31.3384 138.518 31.7043C137.357 31.5025 137.357 31.5025 136.334 31.1662C137.116 29.3742 138.071 28.2606 139.541 26.962C139.912 26.6256 140.282 26.2891 140.663 25.9425C141.793 25.2467 141.793 25.2467 142.966 25.3518ZM142.339 27.9374C142.339 28.6477 142.339 29.358 142.339 30.0899C142.88 29.9123 143.42 29.7347 143.977 29.5518C143.437 29.019 142.896 28.4863 142.339 27.9374Z" fill="white"/>
<path d="M81.9104 0.223593C82.0923 0.758539 82.2742 1.29348 82.4616 1.84464C81.3701 2.02296 80.2786 2.20127 79.154 2.38499C79.336 2.74162 79.5179 3.09825 79.7053 3.46569C81.0985 3.81992 81.0985 3.81992 82.4616 4.00604C82.4616 4.54099 82.4616 5.07593 82.4616 5.62709C81.552 5.62709 80.6425 5.62709 79.7053 5.62709C79.7053 6.16203 79.7053 6.69698 79.7053 7.24814C80.7968 7.24814 81.8883 7.24814 83.0129 7.24814C83.0129 7.78308 83.0129 8.31803 83.0129 8.86918C80.2841 9.13666 80.2841 9.13666 77.5002 9.40953C77.3183 6.55649 77.1364 3.70344 76.949 0.763942C78.711 0.188216 80.0677 0.183457 81.9104 0.223593Z" fill="white"/>
<path d="M132.932 123.914C133.64 123.987 134.349 124.061 135.079 124.136C136.942 126.542 137.778 129.47 138.745 132.319C138.906 132.786 139.068 133.253 139.234 133.735C139.63 134.879 140.021 136.024 140.411 137.17C140.426 136.796 140.441 136.423 140.456 136.037C140.525 134.354 140.598 132.67 140.67 130.986C140.694 130.398 140.717 129.81 140.741 129.203C140.766 128.644 140.791 128.084 140.816 127.508C140.838 126.99 140.86 126.472 140.882 125.938C141.004 124.729 141.004 124.729 141.596 124.136C143.16 124.136 144.724 124.136 146.336 124.136C146.336 133.912 146.336 143.687 146.336 153.759C144.576 153.759 142.817 153.759 141.004 153.759C139.44 149.458 137.876 145.156 136.264 140.725C136.069 145.026 135.873 149.327 135.672 153.759C133.912 153.759 132.152 153.759 130.34 153.759C130.325 149.635 130.314 145.512 130.307 141.388C130.304 139.984 130.3 138.58 130.295 137.176C130.288 135.163 130.284 133.15 130.282 131.137C130.279 130.505 130.276 129.873 130.272 129.222C130.272 128.641 130.272 128.06 130.272 127.461C130.271 126.946 130.27 126.432 130.268 125.902C130.391 123.883 130.847 124.146 132.932 123.914Z" fill="white"/>
<path d="M2.36987 124.136C13.034 124.136 13.034 124.136 16.5887 125.914C17.2772 127.291 17.2495 128.083 17.239 129.614C17.2371 130.11 17.2352 130.606 17.2332 131.117C17.2283 131.636 17.2233 132.155 17.2182 132.69C17.2155 133.206 17.2129 133.723 17.2101 134.255C17.2049 135.216 17.1985 136.178 17.1906 137.139C17.1763 138.991 17.2021 140.834 17.2645 142.685C17.2865 143.698 17.3081 144.711 17.3293 145.724C17.3491 146.233 17.369 146.742 17.3895 147.266C17.3971 147.758 17.4047 148.25 17.4126 148.758C17.4312 149.429 17.4312 149.429 17.4502 150.115C17.1812 151.389 17.1812 151.389 14.8114 153.759C10.7057 153.759 6.59998 153.759 2.36987 153.759C2.36987 143.983 2.36987 134.208 2.36987 124.136ZM7.70194 129.468C7.70194 131.814 7.70194 134.16 7.70194 136.578C8.875 136.578 10.0481 136.578 11.2567 136.578C12.0028 135.965 12.0028 135.965 11.907 134.631C11.9001 134.088 11.8932 133.545 11.8861 132.986C11.8781 132.169 11.8781 132.169 11.8699 131.336C11.8631 130.915 11.8562 130.494 11.8491 130.061C10.4805 129.865 9.11198 129.67 7.70194 129.468ZM7.70194 141.91C7.70194 144.06 7.70194 146.211 7.70194 148.427C9.07051 148.427 10.4391 148.427 11.8491 148.427C11.865 147.452 11.8766 146.477 11.8861 145.501C11.893 144.958 11.8999 144.415 11.907 143.856C12.0028 142.522 12.0028 142.522 11.2567 141.91C10.072 141.886 8.88658 141.885 7.70194 141.91Z" fill="white"/>
<path d="M33.6216 124.025C34.1027 124.018 34.5839 124.011 35.0796 124.003C39.8661 123.991 39.8661 123.991 42.064 125.321C43.8569 128.146 43.444 131.272 43.4341 134.504C43.4436 135.124 43.4532 135.743 43.463 136.381C43.4634 136.977 43.4638 137.574 43.4642 138.188C43.4659 138.732 43.4677 139.275 43.4695 139.835C43.2099 141.58 42.5593 142.332 41.4716 143.687C41.4911 145.252 41.4911 145.252 41.9159 146.872C42.0396 147.442 42.1634 148.013 42.2908 148.6C42.4115 149.13 42.5322 149.659 42.6565 150.204C42.8572 151.388 43.0566 152.573 43.2489 153.759C41.4893 153.759 39.7298 153.759 37.9169 153.759C36.5904 150.529 35.8575 147.756 35.547 144.28C34.765 144.28 33.983 144.28 33.1772 144.28C33.1772 147.408 33.1772 150.536 33.1772 153.759C31.4177 153.759 29.6581 153.759 27.8452 153.759C27.8306 149.635 27.8198 145.512 27.8126 141.388C27.8096 139.984 27.8056 138.58 27.8005 137.176C27.7933 135.163 27.7899 133.15 27.7873 131.137C27.7843 130.505 27.7812 129.873 27.778 129.222C27.778 128.641 27.778 128.06 27.7779 127.461C27.7766 126.946 27.7753 126.432 27.7739 125.902C27.9513 122.981 31.3924 124.027 33.6216 124.025ZM33.1772 129.468C33.1772 132.596 33.1772 135.725 33.1772 138.948C34.5458 138.948 35.9144 138.948 37.3244 138.948C38.4337 137.838 38.0198 136.023 38.0279 134.541C38.0363 133.845 38.0447 133.15 38.0534 132.433C38.1058 130.585 38.1058 130.585 36.732 129.468C35.5589 129.468 34.3858 129.468 33.1772 129.468Z" fill="white"/>
<path d="M112.196 124.025C113.027 124.012 113.027 124.012 113.876 124C116.306 124.2 117.946 124.776 119.675 126.506C120.523 128.758 120.364 131.166 120.367 133.539C120.369 133.989 120.371 134.439 120.373 134.902C120.376 135.852 120.378 136.801 120.377 137.751C120.379 139.2 120.39 140.648 120.401 142.096C120.403 143.021 120.404 143.945 120.404 144.87C120.408 145.3 120.413 145.731 120.417 146.175C120.406 148.561 120.246 150.468 119.083 152.574C116.821 154.082 114.93 153.998 112.307 154.018C111.854 154.037 111.402 154.057 110.935 154.077C110.497 154.081 110.058 154.085 109.606 154.09C109.208 154.098 108.809 154.106 108.399 154.114C106.46 153.523 105.881 152.518 104.864 150.796C104.528 149.046 104.531 147.335 104.549 145.557C104.547 145.055 104.545 144.554 104.542 144.037C104.541 142.979 104.545 141.922 104.555 140.864C104.568 139.249 104.555 137.635 104.54 136.02C104.542 134.99 104.545 133.96 104.549 132.93C104.544 132.45 104.54 131.969 104.535 131.473C104.573 129.14 104.704 127.95 105.957 125.919C107.927 124.082 109.605 124.043 112.196 124.025ZM110.196 130.061C110.067 132.583 110.086 135.109 110.086 137.634C110.085 138.903 110.074 140.172 110.063 141.441C110.061 142.244 110.06 143.048 110.059 143.851C110.057 144.586 110.055 145.321 110.052 146.078C110.011 147.905 110.011 147.905 111.381 149.019C113.34 148.847 113.34 148.847 114.936 147.834C114.995 146.527 115.013 145.218 115.014 143.909C115.015 143.517 115.015 143.125 115.016 142.721C115.016 141.89 115.015 141.059 115.013 140.228C115.01 138.953 115.013 137.677 115.017 136.402C115.016 135.596 115.015 134.791 115.014 133.986C115.014 133.248 115.013 132.51 115.012 131.75C115.129 130.12 115.129 130.12 114.343 129.468C112.09 129.185 112.09 129.185 110.196 130.061Z" fill="white"/>
<path d="M61.2448 124.025C62.0765 124.012 62.0765 124.012 62.9249 124C64.7103 124.147 65.9506 124.499 67.5396 125.321C69.0899 127.646 68.9164 129.652 68.9235 132.352C68.9275 132.868 68.9314 133.385 68.9355 133.917C68.9415 135.009 68.9442 136.102 68.9441 137.195C68.9466 138.863 68.9681 140.531 68.9906 142.199C68.9941 143.261 68.9965 144.323 68.9976 145.386C69.0061 145.883 69.0146 146.381 69.0234 146.893C69.005 149.252 68.8882 150.518 67.6695 152.592C66.2864 153.819 65.8106 154.133 64.0034 154.131C63.5673 154.132 63.1312 154.134 62.6819 154.135C62.2321 154.121 61.7823 154.107 61.3188 154.092C60.869 154.098 60.4192 154.105 59.9557 154.112C57.8867 154.084 56.7414 154.061 54.9708 152.894C53.3902 150.645 53.5732 148.616 53.5984 145.927C53.5962 145.397 53.5939 144.867 53.5916 144.321C53.59 143.201 53.5943 142.082 53.6042 140.962C53.6169 139.25 53.6043 137.538 53.5892 135.825C53.5908 134.737 53.5938 133.649 53.5984 132.56C53.5936 132.048 53.5888 131.537 53.5839 131.01C53.6391 127.472 53.6391 127.472 55.0067 125.609C57.08 124.179 58.7887 124.042 61.2448 124.025ZM59.2453 130.061C59.1859 131.411 59.1678 132.763 59.1666 134.115C59.166 134.521 59.1654 134.926 59.1648 135.344C59.1644 136.202 59.1655 137.061 59.168 137.92C59.1712 139.238 59.168 140.556 59.1643 141.875C59.1646 142.707 59.1654 143.54 59.1666 144.372C59.1672 145.135 59.1679 145.897 59.1686 146.683C59.0457 148.36 59.0457 148.36 59.8377 149.019C61.3188 149.118 61.3188 149.118 62.8 149.019C63.9307 147.888 63.4698 145.87 63.4711 144.372C63.4717 143.967 63.4722 143.561 63.4728 143.144C63.4732 142.285 63.4721 141.426 63.4697 140.568C63.4665 139.249 63.4696 137.931 63.4734 136.612C63.473 135.78 63.4723 134.948 63.4711 134.115C63.4701 132.971 63.4701 132.971 63.4691 131.804C63.592 130.127 63.592 130.127 62.8 129.468C60.8514 129.227 60.8514 129.227 59.2453 130.061Z" fill="white"/>
<path d="M158.965 124.069C159.558 124.072 160.15 124.075 160.761 124.078C161.4 124.08 162.04 124.082 162.699 124.084C163.709 124.092 163.709 124.092 164.739 124.099C165.752 124.103 165.752 124.103 166.786 124.107C168.461 124.114 170.136 124.124 171.811 124.136C171.827 125.012 171.839 125.889 171.848 126.765C171.855 127.253 171.862 127.741 171.869 128.244C171.811 129.468 171.811 129.468 171.219 130.061C169.72 130.104 168.237 130.115 166.738 130.098C166.317 130.095 165.896 130.092 165.462 130.09C164.419 130.083 163.375 130.072 162.332 130.061C162.332 132.211 162.332 134.362 162.332 136.578C164.874 136.578 167.415 136.578 170.034 136.578C170.092 140.223 170.092 140.223 170.034 141.317C169.441 141.91 169.441 141.91 167.828 141.968C167.175 141.961 166.522 141.954 165.85 141.947C164.868 141.939 164.868 141.939 163.866 141.931C163.36 141.924 162.854 141.917 162.332 141.91C162.332 144.06 162.332 146.211 162.332 148.427C165.46 148.427 168.588 148.427 171.811 148.427C171.811 150.186 171.811 151.946 171.811 153.759C166.924 153.759 162.036 153.759 157 153.759C156.986 149.635 156.975 145.512 156.967 141.388C156.964 139.984 156.96 138.58 156.955 137.176C156.948 135.163 156.945 133.15 156.942 131.137C156.939 130.505 156.936 129.873 156.933 129.222C156.933 128.641 156.933 128.06 156.933 127.461C156.931 126.946 156.93 126.432 156.929 125.902C157.033 124.186 157.245 124.153 158.965 124.069Z" fill="white"/>
<path d="M81.4079 124.069C82.334 124.074 82.334 124.074 83.2788 124.078C83.9451 124.08 84.6115 124.082 85.298 124.084C85.9995 124.089 86.7009 124.094 87.4236 124.099C88.1274 124.102 88.8312 124.104 89.5562 124.107C91.3016 124.114 93.0469 124.124 94.7923 124.136C94.4563 127.331 93.6652 129.998 92.4572 132.965C92.2871 133.393 92.117 133.821 91.9417 134.262C91.4027 135.616 90.8574 136.967 90.3119 138.318C89.9431 139.241 89.5747 140.164 89.2068 141.087C88.3086 143.338 87.4048 145.587 86.4979 147.834C87.0043 147.87 87.5106 147.906 88.0323 147.943C88.6868 147.993 89.3413 148.042 90.0156 148.093C90.6686 148.142 91.3216 148.19 91.9943 148.239C93.6074 148.427 93.6074 148.427 94.1998 149.019C94.1998 150.583 94.1998 152.147 94.1998 153.759C88.9211 153.759 83.6423 153.759 78.2036 153.759C79.2871 150.147 80.3128 146.823 81.7097 143.368C81.865 142.982 82.0203 142.595 82.1803 142.198C82.6667 140.99 83.1566 139.784 83.6468 138.577C83.9814 137.748 84.3158 136.919 84.65 136.089C85.4607 134.079 86.2747 132.069 87.0904 130.061C86.5841 130.068 86.0777 130.074 85.556 130.082C84.9015 130.087 84.247 130.092 83.5727 130.098C82.9197 130.105 82.2668 130.111 81.594 130.119C79.981 130.061 79.981 130.061 79.3885 129.468C79.3098 128.394 79.3098 128.394 79.3145 127.098C79.3129 126.671 79.3114 126.243 79.3098 125.802C79.4327 124.126 79.7264 124.148 81.4079 124.069Z" fill="white"/>
<path d="M28.4377 172.125C67.1486 172.125 105.859 172.125 145.743 172.125C145.743 172.711 145.743 173.298 145.743 173.902C107.032 173.902 68.3216 173.902 28.4377 173.902C28.4377 173.316 28.4377 172.729 28.4377 172.125Z" fill="white"/>
<path d="M111.973 115.842C132.502 115.842 153.03 115.842 174.181 115.842C174.181 116.428 174.181 117.015 174.181 117.619C153.652 117.619 133.124 117.619 111.973 117.619C111.973 117.033 111.973 116.446 111.973 115.842Z" fill="white"/>
<path d="M0 115.842C20.5285 115.842 41.0569 115.842 62.2075 115.842C62.2075 116.428 62.2075 117.015 62.2075 117.619C41.679 117.619 21.1505 117.619 0 117.619C0 117.033 0 116.446 0 115.842Z" fill="white"/>
<path d="M156.344 76.1742C158.135 75.1402 160.425 75.7544 161.459 77.5453C162.493 79.3362 161.879 81.6256 160.088 82.6596L126.878 101.834C125.087 102.868 122.797 102.254 121.763 100.463C120.729 98.6724 121.343 96.382 123.134 95.348L156.344 76.1742ZM158.18 77.64C157.141 77.64 156.298 78.4826 156.298 79.5219C156.298 80.5612 157.141 81.4037 158.18 81.4037C159.219 81.4037 160.062 80.5612 160.062 79.5219C160.062 78.4826 159.219 77.64 158.18 77.64Z" fill="white"/>
<path d="M44.4517 56.039H52.293L51.9793 94.7226L49.261 92.8407C49.7628 86.8186 46.2639 85.2434 44.4517 85.2085V56.039Z" fill="white"/>
<path d="M18.1635 76.3197C16.3726 75.2858 14.0823 75.8999 13.0483 77.6908C12.0145 79.4817 12.6285 81.772 14.4194 82.806L47.6293 101.98C49.4202 103.014 51.7106 102.4 52.7446 100.609C53.7783 98.8179 53.1643 96.5284 51.3735 95.4945L18.1635 76.3197ZM16.3276 77.7855C17.3669 77.7855 18.2093 78.6281 18.2094 79.6673C18.2094 80.7067 17.3669 81.5492 16.3276 81.5492C15.2883 81.5491 14.4457 80.7067 14.4457 79.6673C14.4459 78.6281 15.2883 77.7855 16.3276 77.7855Z" fill="white"/>
<rect x="68.376" y="92.2134" width="37.6381" height="8.36403" rx="4.18201" fill="white"/>
<rect x="106.432" y="40.1473" width="37.6381" height="8.36403" rx="4.18201" transform="rotate(-180 106.432 40.1473)" fill="white"/>
<path d="M103.505 91.1676H71.7214V41.4019H103.505V91.1676ZM76.74 65.5533L98.4861 87.2994V66.8072L76.74 45.3746V65.5533Z" fill="white"/>
<path d="M100.159 102.459C100.159 104.789 98.7933 107.022 96.3621 108.669C93.9308 110.316 90.6333 111.242 87.195 111.242C83.7566 111.242 80.4591 110.316 78.0279 108.669C75.5966 107.022 74.2307 104.789 74.2307 102.459L87.195 102.459H100.159Z" fill="white"/>
<path d="M74.6489 29.9014C74.6489 27.5722 76.0148 25.3384 78.446 23.6914C80.8773 22.0444 84.1748 21.1192 87.6131 21.1192C91.0515 21.1192 94.349 22.0444 96.7803 23.6914C99.2115 25.3384 100.577 27.5722 100.577 29.9014L87.6131 29.9014L74.6489 29.9014Z" fill="white"/>
</svg>
