<svg width="28" height="28" viewBox="0 0 28 28" fill="none" xmlns="http://www.w3.org/2000/svg">
<path d="M12.25 7.35001C12.25 8.18544 11.9181 8.98666 11.3273 9.5774C10.7366 10.1681 9.93538 10.5 9.09995 10.5C8.26452 10.5 7.4633 10.1681 6.87257 9.5774C6.28183 8.98666 5.94995 8.18544 5.94995 7.35001C5.94995 6.51458 6.28183 5.71337 6.87257 5.12263C7.4633 4.53189 8.26452 4.20001 9.09995 4.20001C9.93538 4.20001 10.7366 4.53189 11.3273 5.12263C11.9181 5.71337 12.25 6.51458 12.25 7.35001ZM5.59995 11.2C5.22865 11.2 4.87255 11.3475 4.61 11.6101C4.34745 11.8726 4.19995 12.2287 4.19995 12.6V18.9C4.19995 19.5435 4.32669 20.1807 4.57294 20.7752C4.81919 21.3697 5.18012 21.9098 5.63513 22.3648C6.09014 22.8198 6.63031 23.1808 7.2248 23.427C7.8193 23.6733 8.45647 23.8 9.09995 23.8C9.74343 23.8 10.3806 23.6733 10.9751 23.427C11.5696 23.1808 12.1098 22.8198 12.5648 22.3648C13.0198 21.9098 13.3807 21.3697 13.627 20.7752C13.8732 20.1807 14 19.5435 14 18.9V12.6C14 12.2287 13.8525 11.8726 13.5899 11.6101C13.3273 11.3475 12.9713 11.2 12.6 11.2H5.59995ZM13.65 7.35001C13.65 8.26001 13.384 9.10701 12.922 9.81821C13.5002 9.88541 14.0238 10.1262 14.4396 10.4902C14.5245 10.4958 14.6113 10.4991 14.7 10.5C15.1963 10.5 15.6855 10.3827 16.1279 10.1576C16.5703 9.93261 16.9532 9.60624 17.2455 9.20513C17.5378 8.80401 17.7312 8.33951 17.8099 7.84947C17.8886 7.35943 17.8504 6.85774 17.6984 6.38527C17.5463 5.91281 17.2849 5.48295 16.9352 5.13073C16.5855 4.77851 16.1576 4.5139 15.6862 4.35847C15.2149 4.20304 14.7135 4.16118 14.2229 4.23632C13.7323 4.31145 13.2664 4.50144 12.8632 4.79081C13.3588 5.52021 13.65 6.40081 13.65 7.35001ZM13.3 23.597C13.9608 23.0059 14.4894 22.2821 14.8513 21.4727C15.2132 20.6633 15.4001 19.7866 15.4 18.9V12.6C15.4 12.0904 15.2628 11.6116 15.0248 11.2H18.2C18.5713 11.2 18.9273 11.3475 19.1899 11.6101C19.4525 11.8726 19.6 12.2287 19.6 12.6V18.9C19.6001 19.6633 19.422 20.4161 19.0798 21.0983C18.7376 21.7805 18.2407 22.3734 17.6288 22.8296C17.0168 23.2859 16.3068 23.5928 15.5552 23.726C14.8037 23.8593 14.0314 23.8151 13.3 23.597ZM19.25 7.35001C19.25 8.26001 18.984 9.10701 18.522 9.81821C19.1002 9.88541 19.6238 10.1262 20.0396 10.4902C20.1245 10.4958 20.2113 10.4991 20.3 10.5C20.7963 10.5 21.2855 10.3827 21.7279 10.1576C22.1703 9.93261 22.5532 9.60624 22.8455 9.20513C23.1378 8.80401 23.3312 8.33951 23.4099 7.84947C23.4886 7.35943 23.4504 6.85774 23.2984 6.38527C23.1463 5.91281 22.8849 5.48295 22.5352 5.13073C22.1855 4.77851 21.7576 4.5139 21.2862 4.35847C20.8149 4.20304 20.3135 4.16118 19.8229 4.23632C19.3323 4.31145 18.8664 4.50144 18.4632 4.79081C18.9588 5.52021 19.25 6.40081 19.25 7.35001ZM18.9 23.597C19.5608 23.0059 20.0894 22.2821 20.4513 21.4727C20.8132 20.6633 21.0001 19.7866 21 18.9V12.6C21 12.0904 20.8628 11.6116 20.6248 11.2H23.8C24.1713 11.2 24.5274 11.3475 24.7899 11.6101C25.0525 11.8726 25.2 12.2287 25.2 12.6V18.9C25.2001 19.6633 25.022 20.4161 24.6798 21.0983C24.3376 21.7805 23.8407 22.3734 23.2288 22.8296C22.6168 23.2859 21.9068 23.5928 21.1552 23.726C20.4037 23.8593 19.6314 23.8151 18.9 23.597Z" fill="white"/>
</svg>
