<svg width="16" height="16" viewBox="0 0 16 16" fill="none" xmlns="http://www.w3.org/2000/svg">
<path d="M5.64493 2.14146C5.28634 1.63368 4.78985 1.40486 4.26326 1.4105C3.76362 1.41552 3.27715 1.62929 2.87093 1.9139C2.45659 2.2056 2.10329 2.57551 1.83091 3.00281C1.57389 3.40966 1.38833 3.89049 1.4134 4.36003C1.53439 6.61873 2.8051 9.03226 4.58987 10.8183C6.37338 12.6024 8.75494 13.8424 11.1597 13.6054C11.6311 13.5591 12.0768 13.319 12.4411 13.013C12.8178 12.6939 13.1256 12.3015 13.3457 11.8595C13.5588 11.4257 13.6861 10.9255 13.6159 10.4384C13.5431 9.9306 13.2592 9.47673 12.737 9.17582C12.6288 9.11305 12.5218 9.04826 12.416 8.98148C12.322 8.92318 12.2217 8.85987 12.1 8.78715C11.8516 8.63399 11.5895 8.50429 11.3171 8.39973C11.0368 8.29754 10.7165 8.23047 10.383 8.27623C10.0376 8.32387 9.71659 8.48687 9.43888 8.779C9.22511 9.00468 8.91041 9.07489 8.46782 8.94701C8.01772 8.81661 7.51119 8.49313 7.07111 8.05556C6.63103 7.61925 6.29815 7.10896 6.15585 6.64819C6.01542 6.19181 6.07748 5.85642 6.2969 5.6251C6.59342 5.31291 6.75139 4.96561 6.78462 4.59825C6.81722 4.24092 6.7282 3.90491 6.60094 3.61152C6.41036 3.17332 6.08689 2.73763 5.83362 2.39786C5.76995 2.31291 5.70725 2.22723 5.64555 2.14083" fill="white"/>
</svg>
