<svg width="24" height="24" viewBox="0 0 24 24" fill="none" xmlns="http://www.w3.org/2000/svg">
<path d="M2.33333 4.66667H0V21C0 22.2833 1.05 23.3333 2.33333 23.3333H18.6667V21H2.33333V4.66667ZM21 0H7C5.71667 0 4.66667 1.05 4.66667 2.33333V16.3333C4.66667 17.6167 5.71667 18.6667 7 18.6667H21C22.2833 18.6667 23.3333 17.6167 23.3333 16.3333V2.33333C23.3333 1.05 22.2833 0 21 0ZM19.8333 10.5H15.1667V15.1667H12.8333V10.5H8.16667V8.16667H12.8333V3.5H15.1667V8.16667H19.8333V10.5Z" fill="white"/>
</svg>
