<svg width="69" height="69" viewBox="0 0 69 69" fill="none" xmlns="http://www.w3.org/2000/svg">
<path fill-rule="evenodd" clip-rule="evenodd" d="M14.2168 16.7555C12.6554 15.6629 10.7241 15.2351 8.84737 15.5661C6.97066 15.8971 5.30223 16.9599 4.20891 18.5207L3.38379 19.6995L24.515 34.4942L3.38379 49.2919L4.20891 50.4706C5.30267 52.031 6.97131 53.0932 8.84799 53.4237C10.7247 53.7542 12.6558 53.3259 14.2168 52.233L32.0332 39.7584L39.4219 44.9334C38.4917 47.8398 38.6189 50.9816 39.781 53.8033C40.9431 56.6251 43.0652 58.9452 45.7724 60.3538C48.4796 61.7623 51.5975 62.1685 54.5752 61.5006C57.5529 60.8327 60.1987 59.1338 62.045 56.7039C63.8912 54.2741 64.8191 51.2698 64.6647 48.2221C64.5103 45.1743 63.2835 42.2792 61.201 40.0485C59.1186 37.8177 56.3147 36.3948 53.2847 36.0314C50.2548 35.6679 47.1939 36.3872 44.6429 38.0621L39.5542 34.4971L44.6372 30.9321C47.1871 32.6084 50.2474 33.3294 53.2775 32.9677C56.3075 32.606 59.1122 31.1849 61.1959 28.9555C63.2796 26.7261 64.5081 23.8319 64.6645 20.7843C64.8209 17.7368 63.895 14.7321 62.0504 12.3011C60.2058 9.87015 57.5614 8.16945 54.5843 7.49952C51.6071 6.82959 48.4891 7.23357 45.781 8.64006C43.0729 10.0466 40.9491 12.365 39.785 15.1858C38.6208 18.0066 38.4912 21.148 39.419 24.0551L32.0332 29.2301L14.2168 16.7555ZM51.7499 53.1875C51.1836 53.1875 50.6228 53.076 50.0996 52.8592C49.5764 52.6425 49.101 52.3248 48.7005 51.9244C48.3001 51.5239 47.9824 51.0485 47.7657 50.5253C47.549 50.0021 47.4374 49.4413 47.4374 48.875C47.4374 48.3087 47.549 47.7479 47.7657 47.2247C47.9824 46.7015 48.3001 46.2261 48.7005 45.8256C49.101 45.4251 49.5764 45.1075 50.0996 44.8908C50.6228 44.674 51.1836 44.5625 51.7499 44.5625C52.8937 44.5625 53.9906 45.0168 54.7993 45.8256C55.6081 46.6343 56.0624 47.7313 56.0624 48.875C56.0624 50.0187 55.6081 51.1156 54.7993 51.9244C53.9906 52.7331 52.8937 53.1875 51.7499 53.1875ZM51.7499 24.4375C50.6062 24.4375 49.5093 23.9831 48.7005 23.1744C47.8918 22.3656 47.4374 21.2687 47.4374 20.125C47.4374 18.9813 47.8918 17.8843 48.7005 17.0756C49.5093 16.2668 50.6062 15.8125 51.7499 15.8125C52.8937 15.8125 53.9906 16.2668 54.7993 17.0756C55.6081 17.8843 56.0624 18.9813 56.0624 20.125C56.0624 21.2687 55.6081 22.3656 54.7993 23.1744C53.9906 23.9831 52.8937 24.4375 51.7499 24.4375Z" fill="white"/>
</svg>
